<?xml version="1.0" standalone="no"?>
<!DOCTYPE svg PUBLIC "-//W3C//DTD SVG 20010904//EN"
 "http://www.w3.org/TR/2001/REC-SVG-20010904/DTD/svg10.dtd">
<svg version="1.0" xmlns="http://www.w3.org/2000/svg"
 width="225.000000pt" height="225.000000pt" viewBox="0 0 225.000000 225.000000"
 preserveAspectRatio="xMidYMid meet">

<g transform="translate(0.000000,225.000000) scale(0.100000,-0.100000)"
fill="#000000" stroke="none">
<path d="M283 2053 c-33 -6 -79 -57 -87 -94 -11 -55 -7 -1630 4 -1671 6 -20
24 -48 41 -62 l31 -26 854 0 854 0 38 34 37 34 3 844 c2 787 1 845 -15 878
-37 74 10 70 -913 69 -454 -1 -835 -4 -847 -6z m1685 -85 c9 -9 12 -209 12
-839 0 -739 -2 -829 -16 -843 -14 -14 -103 -16 -832 -16 -724 0 -820 2 -840
16 l-22 15 0 820 c0 546 3 827 10 840 10 19 30 19 843 19 635 0 836 -3 845
-12z"/>
<path d="M533 1839 c-90 -44 -128 -160 -83 -254 60 -124 241 -142 323 -33 124
163 -56 378 -240 287z m132 -63 c39 -17 75 -68 75 -107 0 -34 -39 -91 -74
-107 -67 -33 -156 24 -156 100 0 52 24 97 63 113 41 18 50 18 92 1z"/>
<path d="M442 1348 c-17 -17 -17 -889 0 -906 8 -8 64 -12 185 -12 160 0 173 1
183 19 6 13 10 172 10 450 0 377 -2 431 -16 445 -13 13 -44 16 -183 16 -116 0
-171 -4 -179 -12z m298 -453 l0 -385 -115 0 -115 0 0 385 0 385 115 0 115 0 0
-385z"/>
<path d="M910 1350 c-13 -8 -15 -70 -18 -438 -2 -271 1 -439 7 -456 l11 -26
134 0 c97 0 136 4 144 13 7 8 12 107 14 276 l3 263 37 34 c46 42 100 46 143
12 51 -40 55 -65 55 -337 0 -218 2 -250 16 -255 20 -8 328 -8 348 0 14 5 16
43 16 325 0 302 -1 321 -22 376 -29 80 -122 172 -198 199 -75 26 -228 24 -325
-4 -38 -12 -70 -20 -70 -19 0 1 -5 11 -11 22 -10 18 -23 20 -140 23 -71 1
-136 -2 -144 -8z m220 -99 c0 -52 22 -58 94 -22 75 37 142 51 240 51 117 0
212 -58 260 -160 20 -42 21 -64 24 -327 l3 -283 -120 0 -121 0 0 235 c0 212
-2 240 -19 273 -28 54 -63 83 -119 97 -86 23 -155 -1 -209 -71 l-28 -37 -3
-249 -3 -248 -79 0 -80 0 0 385 0 385 80 0 80 0 0 -29z"/>
</g>
</svg>
