<?xml version="1.0" standalone="no"?>
<!DOCTYPE svg PUBLIC "-//W3C//DTD SVG 20010904//EN"
 "http://www.w3.org/TR/2001/REC-SVG-20010904/DTD/svg10.dtd">
<svg version="1.0" xmlns="http://www.w3.org/2000/svg"
 width="300.000000pt" height="168.000000pt" viewBox="0 0 300.000000 168.000000"
 preserveAspectRatio="xMidYMid meet">

<g transform="translate(0.000000,168.000000) scale(0.100000,-0.100000)"
fill="#000000" stroke="none">
<path d="M446 1326 c-171 -64 -223 -288 -95 -415 48 -49 103 -71 177 -71 76 0
124 19 176 68 53 51 76 104 76 177 0 101 -51 184 -143 232 -43 22 -143 27
-191 9z m149 -130 c43 -87 29 -198 -32 -246 -13 -10 -24 -21 -24 -24 1 -3 1
-18 0 -33 l-1 -28 -10 30 c-6 17 -26 46 -43 66 -73 82 -65 215 18 307 l21 22
23 -22 c12 -12 34 -44 48 -72z"/>
<path d="M533 1150 c0 -41 2 -58 4 -37 2 20 2 54 0 75 -2 20 -4 3 -4 -38z"/>
<path d="M1080 1319 c-254 -115 -180 -479 97 -479 74 0 115 15 167 60 48 42
76 99 83 165 19 185 -179 330 -347 254z m40 -169 c16 0 40 -31 40 -51 0 -16
-7 -19 -46 -19 -32 0 -44 -4 -41 -12 2 -7 17 -12 33 -11 44 4 59 -4 44 -22
-32 -39 -130 -5 -130 46 0 44 43 85 78 73 8 -2 17 -4 22 -4z m126 -17 c12 -17
13 -17 19 0 5 11 18 17 37 17 l29 0 -20 -26 c-27 -34 -26 -42 6 -76 l27 -28
-29 0 c-16 0 -36 7 -45 15 -15 14 -18 14 -30 0 -7 -8 -26 -15 -43 -15 l-31 0
27 28 c32 34 33 42 6 76 l-20 26 27 0 c15 0 33 -8 40 -17z"/>
<path d="M1077 1123 c-14 -13 -6 -23 18 -23 28 0 34 15 9 24 -19 7 -19 7 -27
-1z"/>
<path d="M1732 1324 c-23 -9 -62 -36 -86 -60 -105 -105 -98 -270 15 -368 55
-46 96 -59 179 -54 119 6 208 83 231 201 21 104 -36 219 -135 269 -53 27 -148
33 -204 12z m68 -83 c24 -17 26 -16 59 6 43 29 57 29 77 -2 11 -17 14 -35 10
-60 -6 -28 -4 -35 8 -35 9 0 30 -13 47 -28 28 -25 30 -31 20 -51 -7 -12 -27
-29 -44 -36 -28 -12 -31 -17 -29 -48 7 -72 -31 -95 -92 -57 -32 19 -32 19 -61
0 -60 -39 -101 -14 -93 56 3 29 0 35 -23 45 -68 28 -74 77 -13 106 31 15 34
21 34 59 0 72 37 89 100 45z"/>
<path d="M1727 1243 c-4 -3 -7 -24 -7 -45 0 -45 21 -51 64 -17 33 26 33 35 -4
54 -32 17 -43 18 -53 8z"/>
<path d="M1861 1232 c-20 -17 -22 -21 -10 -40 12 -19 37 -32 67 -32 9 0 12 13
10 43 -4 49 -27 59 -67 29z"/>
<path d="M1810 1185 c-10 -13 -9 -15 9 -15 11 0 21 4 21 9 0 18 -18 21 -30 6z"/>
<path d="M1730 1136 c0 -22 17 -28 24 -10 9 22 8 24 -9 24 -8 0 -15 -6 -15
-14z"/>
<path d="M1766 1120 c-17 -30 -17 -32 1 -63 16 -27 25 -32 58 -32 33 0 42 5
57 31 18 30 18 33 1 63 -16 26 -24 31 -58 31 -35 0 -43 -5 -59 -30z m89 -21
c14 -42 -45 -66 -61 -24 -10 25 4 45 30 45 16 0 27 -7 31 -21z"/>
<path d="M1890 1143 c0 -5 4 -14 9 -21 7 -11 9 -11 14 1 3 8 3 18 0 21 -9 8
-23 7 -23 -1z"/>
<path d="M1685 1130 c-52 -20 -56 -61 -9 -82 23 -11 28 -10 41 7 8 12 11 30 8
45 -9 34 -16 39 -40 30z"/>
<path d="M1930 1120 c-12 -23 -4 -80 11 -80 6 0 24 7 40 16 37 19 35 42 -8 67
-31 18 -32 18 -43 -3z"/>
<path d="M1730 1045 c0 -8 7 -15 15 -15 9 0 12 6 9 15 -4 8 -10 15 -15 15 -5
0 -9 -7 -9 -15z"/>
<path d="M1896 1053 c-11 -11 -6 -23 9 -23 8 0 15 4 15 9 0 13 -16 22 -24 14z"/>
<path d="M1720 971 c0 -48 16 -56 59 -30 31 19 31 20 15 44 -11 17 -25 25 -45
25 -27 0 -29 -3 -29 -39z"/>
<path d="M1810 995 c12 -15 30 -12 30 6 0 5 -10 9 -21 9 -18 0 -19 -2 -9 -15z"/>
<path d="M1856 988 c-17 -24 -8 -44 29 -58 28 -11 45 6 45 46 0 31 -3 34 -29
34 -19 0 -35 -8 -45 -22z"/>
<path d="M2386 1326 c-99 -37 -166 -134 -166 -240 0 -74 23 -127 76 -178 52
-49 100 -68 176 -68 144 1 247 103 248 245 0 101 -51 184 -143 232 -43 22
-143 27 -191 9z m187 -21 c121 -57 170 -198 113 -320 -40 -86 -115 -135 -207
-135 -107 0 -184 46 -225 134 -39 84 -27 191 28 256 25 30 83 68 118 79 48 14
128 8 173 -14z"/>
<path d="M2446 1291 c-4 -5 3 -7 14 -4 23 6 26 13 6 13 -8 0 -17 -4 -20 -9z"/>
<path d="M2530 1266 c0 -3 9 -10 20 -16 11 -6 20 -8 20 -6 0 3 -9 10 -20 16
-11 6 -20 8 -20 6z"/>
<path d="M2394 1214 c-18 -14 -18 -15 4 -4 12 6 22 13 22 15 0 8 -5 6 -26 -11z"/>
<path d="M2296 1201 c-14 -15 -16 -35 -13 -112 l3 -94 2 94 c1 72 6 99 19 113
9 10 14 18 11 18 -3 0 -13 -8 -22 -19z"/>
<path d="M2620 1216 c0 -2 8 -10 18 -17 15 -13 16 -12 3 4 -13 16 -21 21 -21
13z"/>
<path d="M2333 1183 c-9 -3 -12 -30 -11 -91 l2 -87 3 80 c2 43 9 85 15 92 11
14 10 14 -9 6z"/>
<path d="M2488 1173 c12 -2 32 -2 45 0 12 2 2 4 -23 4 -25 0 -35 -2 -22 -4z"/>
<path d="M2650 1088 c-3 -53 -1 -94 3 -89 4 4 6 48 5 97 l-3 89 -5 -97z"/>
<path d="M2442 1158 c-15 -15 -16 -55 -1 -64 8 -4 7 -9 -2 -15 -10 -6 -8 -9 9
-9 12 0 22 -6 22 -12 0 -9 2 -10 8 -2 4 7 16 14 27 17 15 4 14 5 -5 4 -47 -4
-79 50 -48 81 7 7 10 12 7 12 -3 0 -10 -5 -17 -12z"/>
<path d="M2480 1132 c0 -5 15 -7 33 -6 28 3 29 3 7 -4 -23 -8 -22 -9 14 -15
22 -3 42 -4 45 -2 2 3 -3 5 -11 5 -9 0 -18 7 -22 15 -6 16 -66 22 -66 7z"/>
<path d="M2591 1064 c0 -11 3 -14 6 -6 3 7 2 16 -1 19 -3 4 -6 -2 -5 -13z"/>
<path d="M2540 1062 c0 -7 -12 -13 -27 -13 -26 -2 -26 -2 -4 -6 24 -5 50 11
38 24 -4 3 -7 1 -7 -5z"/>
<path d="M2430 1041 c0 -6 4 -13 10 -16 6 -3 7 1 4 9 -7 18 -14 21 -14 7z"/>
<path d="M2569 1023 c-13 -16 -12 -17 4 -4 9 7 17 15 17 17 0 8 -8 3 -21 -13z"/>
<path d="M2493 1003 c9 -2 25 -2 35 0 9 3 1 5 -18 5 -19 0 -27 -2 -17 -5z"/>
<path d="M2554 984 c-18 -14 -18 -15 4 -4 12 6 22 13 22 15 0 8 -5 6 -26 -11z"/>
<path d="M2397 945 c-4 -8 -1 -17 5 -21 7 -4 8 -3 4 5 -4 7 2 15 16 20 22 9
22 10 2 10 -12 1 -24 -6 -27 -14z"/>
<path d="M2460 936 c7 -7 13 -7 20 0 6 6 3 10 -10 10 -13 0 -16 -4 -10 -10z"/>
<path d="M2434 905 c11 -8 27 -15 36 -15 9 0 25 7 36 15 18 14 17 14 -8 4 -22
-9 -34 -9 -55 0 -26 10 -27 10 -9 -4z"/>
<path d="M380 555 l0 -125 30 0 30 0 0 83 c0 60 3 78 11 67 7 -10 9 -11 7 -2
-2 8 -8 14 -13 15 -6 1 -11 -32 -13 -75 -3 -70 -5 -78 -22 -78 -19 0 -20 7
-20 114 l0 115 53 4 52 3 -57 2 -58 2 0 -125z"/>
<path d="M570 673 c0 -5 22 -6 50 -5 l50 4 0 -116 0 -116 -25 0 c-24 0 -25 2
-25 74 0 41 -3 77 -7 79 -5 3 -7 -33 -5 -79 l3 -84 35 0 34 0 0 125 0 125 -55
0 c-30 0 -55 -3 -55 -7z"/>
<path d="M520 440 l-25 -8 28 -1 c15 -1 27 4 27 9 0 6 -1 10 -2 9 -2 -1 -14
-5 -28 -9z"/>
<path d="M2757 84 c-14 -15 -6 -34 14 -34 14 0 19 5 17 17 -3 18 -20 27 -31
17z"/>
<path d="M2880 71 c0 -10 7 -18 15 -18 8 0 15 5 15 11 0 6 4 5 9 -3 11 -17 45
-7 39 12 -3 6 -21 13 -41 14 -30 2 -37 -1 -37 -16z"/>
</g>
</svg>
