<?xml version="1.0" standalone="no"?>
<!DOCTYPE svg PUBLIC "-//W3C//DTD SVG 20010904//EN"
 "http://www.w3.org/TR/2001/REC-SVG-20010904/DTD/svg10.dtd">
<svg version="1.0" xmlns="http://www.w3.org/2000/svg"
 width="225.000000pt" height="225.000000pt" viewBox="0 0 225.000000 225.000000"
 preserveAspectRatio="xMidYMid meet">

<g transform="translate(0.000000,225.000000) scale(0.100000,-0.100000)"
fill="#000000" stroke="none">
<path d="M295 1445 c-50 -18 -134 -49 -189 -68 -54 -20 -100 -38 -102 -40 -3
-2 -3 -98 -2 -214 l3 -209 62 24 63 24 0 174 c0 96 1 174 3 174 1 0 56 14 122
30 66 16 123 30 128 30 4 0 7 -115 7 -255 0 -209 -2 -255 -14 -255 -7 0 -77 7
-156 16 -78 8 -144 13 -146 11 -3 -2 66 -29 153 -59 l157 -55 66 18 c36 10 82
23 103 29 l37 11 0 289 0 290 -37 15 c-21 9 -67 24 -103 34 l-66 19 -89 -33z"/>
<path d="M1321 1337 c-14 -15 -24 -42 -28 -75 -5 -46 -8 -52 -29 -52 -15 0
-24 -6 -24 -15 0 -9 9 -15 25 -15 l24 0 3 -132 c3 -116 5 -133 20 -136 16 -3
18 10 20 130 l3 133 63 3 62 3 0 -136 c0 -128 1 -135 20 -135 18 0 20 8 22
133 l3 132 33 3 c46 5 43 32 -4 32 l-37 0 5 45 c7 57 24 78 60 73 22 -4 28 -1
28 14 0 14 -8 18 -38 18 -54 0 -83 -33 -90 -100 l-5 -51 -61 3 -61 3 1 44 c1
48 21 71 61 71 14 0 23 6 23 15 0 26 -72 19 -99 -8z"/>
<path d="M1624 1335 c-4 -9 -2 -21 4 -27 16 -16 47 -5 47 17 0 26 -42 34 -51
10z"/>
<path d="M935 1325 c-85 -30 -131 -115 -123 -231 7 -114 80 -184 193 -184 58
0 116 22 147 57 68 75 63 262 -8 325 -52 46 -135 59 -209 33z m176 -63 c36
-40 53 -103 46 -171 -9 -89 -63 -143 -143 -144 -87 -1 -141 48 -159 145 -14
72 36 178 95 201 8 4 42 5 74 3 52 -2 62 -6 87 -34z"/>
<path d="M1810 1202 c-55 -27 -80 -74 -80 -149 0 -58 3 -66 33 -100 29 -31 41
-37 89 -41 59 -5 98 9 98 34 0 12 -5 14 -17 9 -92 -39 -163 9 -163 109 0 81
70 136 143 111 35 -12 37 -12 37 10 0 38 -79 48 -140 17z"/>
<path d="M2059 1197 c-19 -12 -42 -38 -51 -57 -36 -70 -12 -187 43 -215 54
-28 169 -14 169 21 0 11 -5 14 -17 9 -74 -30 -144 -8 -163 50 -7 20 -9 39 -6
43 4 3 54 5 113 3 l106 -3 -6 47 c-9 59 -21 82 -60 105 -42 26 -86 25 -128 -3z
m119 -40 c12 -11 22 -31 22 -44 0 -22 -3 -23 -84 -23 -82 0 -84 1 -79 23 8 31
23 48 57 62 34 15 51 11 84 -18z"/>
<path d="M1630 1060 c0 -143 1 -150 20 -150 19 0 20 7 20 150 0 143 -1 150
-20 150 -19 0 -20 -7 -20 -150z"/>
</g>
</svg>
