<?xml version="1.0" standalone="no"?>
<!DOCTYPE svg PUBLIC "-//W3C//DTD SVG 20010904//EN"
 "http://www.w3.org/TR/2001/REC-SVG-20010904/DTD/svg10.dtd">
<svg version="1.0" xmlns="http://www.w3.org/2000/svg"
 width="225.000000pt" height="225.000000pt" viewBox="0 0 225.000000 225.000000"
 preserveAspectRatio="xMidYMid meet">

<g transform="translate(0.000000,225.000000) scale(0.100000,-0.100000)"
fill="#000000" stroke="none">
<path d="M939 1991 c-174 -38 -338 -131 -465 -262 -122 -128 -185 -242 -230
-414 -22 -88 -25 -115 -21 -220 13 -367 195 -637 534 -788 44 -20 99 -39 121
-43 53 -8 62 9 62 125 l0 91 -60 0 c-102 0 -143 28 -230 158 -28 42 -58 73
-80 84 -19 10 -27 18 -18 18 38 0 111 -43 168 -99 77 -76 119 -92 185 -67 27
11 45 24 45 34 0 8 10 35 21 60 15 30 18 47 11 54 -5 5 -41 16 -79 24 -173 37
-276 162 -277 339 0 67 4 90 27 140 16 33 38 70 49 82 18 20 20 27 10 48 -14
30 -16 134 -3 154 13 21 119 -4 177 -41 l45 -28 58 15 c75 19 210 19 284 0
l57 -15 42 30 c37 27 122 60 154 60 24 0 38 -79 25 -141 -11 -55 -11 -57 23
-113 113 -187 50 -424 -132 -503 -19 -8 -59 -19 -90 -24 -108 -19 -107 -16
-61 -112 26 -57 31 -81 36 -176 5 -84 9 -111 19 -111 11 0 14 21 14 88 0 90
-20 190 -46 229 -22 35 -18 40 40 47 106 14 223 93 269 182 60 116 47 301 -28
411 -20 30 -22 40 -13 65 12 34 6 120 -11 162 -11 28 -13 29 -65 23 -52 -5
-124 -34 -157 -63 -14 -12 -30 -12 -114 2 -91 16 -106 16 -196 1 l-98 -16 -68
31 c-85 40 -176 50 -191 22 -18 -34 -24 -109 -13 -152 11 -37 9 -44 -18 -87
-68 -107 -79 -257 -27 -371 53 -116 147 -185 299 -218 26 -6 27 -8 12 -29 -8
-12 -15 -29 -15 -39 0 -23 -30 -38 -74 -38 -30 0 -45 10 -98 61 -70 68 -144
109 -199 109 -74 0 -73 -47 1 -76 26 -11 45 -30 71 -72 43 -72 93 -128 133
-150 17 -9 58 -19 91 -22 l60 -5 3 -45 c2 -24 1 -60 -3 -78 -7 -38 -7 -39
-128 13 -110 47 -179 90 -258 163 -120 111 -190 228 -234 392 -47 179 -43 325
14 495 135 396 557 651 960 581 205 -36 338 -104 482 -246 110 -109 164 -193
208 -322 65 -192 68 -365 9 -548 -100 -315 -393 -536 -760 -575 -51 -6 -68
-11 -68 -23 0 -12 11 -14 73 -8 298 27 562 183 707 419 89 144 126 298 117
491 -10 241 -102 445 -271 603 -173 163 -365 241 -606 249 -96 3 -145 0 -211
-15z"/>
</g>
</svg>
