<?xml version="1.0" standalone="no"?>
<!DOCTYPE svg PUBLIC "-//W3C//DTD SVG 20010904//EN"
 "http://www.w3.org/TR/2001/REC-SVG-20010904/DTD/svg10.dtd">
<svg version="1.0" xmlns="http://www.w3.org/2000/svg"
 width="225.000000pt" height="225.000000pt" viewBox="0 0 225.000000 225.000000"
 preserveAspectRatio="xMidYMid meet">

<g transform="translate(0.000000,225.000000) scale(0.100000,-0.100000)"
fill="#000000" stroke="none">
<path d="M1720 1657 c0 -2 9 -30 20 -62 24 -71 26 -137 4 -156 -9 -7 -39 -22
-68 -34 -40 -16 -58 -31 -83 -69 -38 -56 -41 -72 -13 -79 16 -4 26 3 44 31 30
48 41 57 100 79 64 23 90 59 92 124 1 28 4 52 6 55 10 9 137 -134 160 -181 51
-100 56 -212 14 -294 -25 -47 -94 -99 -162 -121 -70 -24 -78 -31 -69 -59 5
-18 8 -18 69 3 135 48 194 101 227 208 24 77 24 130 -1 211 -37 120 -143 247
-264 316 -47 28 -76 38 -76 28z"/>
<path d="M540 1032 c0 -163 0 -163 58 -155 32 5 32 6 32 59 l0 54 64 0 c63 0
64 0 70 -31 3 -17 6 -42 6 -55 0 -22 4 -24 45 -24 l45 0 0 123 c0 119 -1 124
-25 147 -23 22 -35 24 -160 28 l-135 5 0 -151z m230 88 c6 -12 10 -38 8 -58
l-3 -37 -77 -3 -78 -3 0 61 0 60 70 0 c60 0 71 -3 80 -20z"/>
<path d="M1508 1173 l-98 -4 0 -143 c0 -156 0 -157 57 -149 32 5 32 6 35 67
l3 61 95 5 c88 5 95 7 107 30 7 14 13 42 13 63 0 50 -28 78 -77 75 -21 -1 -82
-4 -135 -5z m100 -80 l-3 -38 -52 -3 -53 -3 0 40 0 41 56 0 55 0 -3 -37z"/>
<path d="M172 1040 c2 -72 8 -134 13 -139 20 -20 119 -31 206 -24 77 7 84 10
87 31 3 22 2 22 -102 22 l-106 0 0 120 0 120 -51 0 -51 0 4 -130z"/>
</g>
</svg>
