<?xml version="1.0" standalone="no"?>
<!DOCTYPE svg PUBLIC "-//W3C//DTD SVG 20010904//EN"
 "http://www.w3.org/TR/2001/REC-SVG-20010904/DTD/svg10.dtd">
<svg version="1.0" xmlns="http://www.w3.org/2000/svg"
 width="225.000000pt" height="225.000000pt" viewBox="0 0 225.000000 225.000000"
 preserveAspectRatio="xMidYMid meet">

<g transform="translate(0.000000,225.000000) scale(0.100000,-0.100000)"
fill="#000000" stroke="none">
<path d="M675 2051 c-113 -41 -242 -123 -275 -176 -25 -41 -25 -91 0 -237 32
-187 101 -400 183 -563 171 -341 468 -654 797 -841 92 -52 105 -56 149 -52 81
8 262 144 323 243 22 36 23 96 4 134 -19 36 -315 307 -350 321 -41 15 -73 12
-161 -16 l-80 -25 -72 76 c-40 42 -100 117 -133 167 -61 90 -150 257 -150 279
0 6 23 40 51 76 64 80 82 127 68 177 -13 45 -134 367 -149 396 -31 57 -113 74
-205 41z m113 -79 c13 -9 152 -371 152 -396 0 -8 -31 -53 -70 -101 -38 -48
-70 -93 -70 -99 0 -23 112 -240 166 -324 95 -146 243 -312 278 -312 7 0 60 14
116 30 99 30 103 30 124 13 52 -45 263 -238 279 -255 9 -11 17 -27 17 -36 0
-24 -150 -165 -210 -196 l-55 -28 -65 35 c-518 285 -874 802 -966 1402 l-16
110 38 33 c50 43 129 88 196 112 61 22 69 23 86 12z"/>
</g>
</svg>
