<?xml version="1.0" standalone="no"?>
<!DOCTYPE svg PUBLIC "-//W3C//DTD SVG 20010904//EN"
 "http://www.w3.org/TR/2001/REC-SVG-20010904/DTD/svg10.dtd">
<svg version="1.0" xmlns="http://www.w3.org/2000/svg"
 width="225.000000pt" height="225.000000pt" viewBox="0 0 225.000000 225.000000"
 preserveAspectRatio="xMidYMid meet">

<g transform="translate(0.000000,225.000000) scale(0.100000,-0.100000)"
fill="#000000" stroke="none">
<path d="M1011 2199 c-117 -11 -267 -56 -383 -116 -531 -273 -737 -934 -456
-1462 107 -202 247 -342 449 -449 464 -247 1041 -121 1364 299 65 83 140 232
174 344 59 192 59 429 0 620 -155 503 -620 812 -1148 764z m325 -125 c127 -26
275 -95 381 -177 59 -46 64 -57 29 -57 -12 0 -38 -10 -56 -22 -53 -37 -73 -71
-78 -136 -4 -62 15 -115 93 -247 79 -135 95 -265 50 -419 -14 -47 -37 -125
-51 -173 -15 -49 -41 -137 -59 -198 -29 -97 -34 -107 -42 -85 -6 14 -83 243
-173 510 -89 267 -165 490 -167 497 -3 7 13 14 44 18 93 12 95 13 91 47 l-3
32 -284 0 c-257 0 -286 -2 -295 -17 -19 -30 5 -51 71 -60 l59 -8 75 -207 76
-207 -106 -317 c-58 -174 -107 -315 -109 -314 -2 3 -352 1037 -352 1042 0 1
24 5 53 9 90 11 108 25 87 66 -10 18 -20 18 -180 12 -107 -4 -170 -3 -170 3 0
20 110 143 179 201 230 194 535 270 837 207z m713 -650 c62 -190 62 -410 0
-596 -53 -161 -120 -270 -238 -389 -71 -70 -180 -154 -189 -144 -2 2 61 192
141 422 80 230 160 461 178 513 28 82 33 112 37 224 l5 129 18 -34 c10 -19 32
-75 48 -125z m-1746 -84 c31 -85 95 -261 142 -390 48 -129 99 -271 115 -315
15 -44 53 -146 83 -227 30 -81 52 -150 50 -152 -8 -8 -117 63 -186 119 -136
112 -250 277 -306 444 -51 150 -61 343 -26 511 17 83 55 184 65 173 4 -4 32
-78 63 -163z m944 -585 c47 -126 97 -266 113 -310 15 -44 40 -110 54 -148 14
-37 26 -74 26 -81 0 -18 -91 -43 -213 -57 -76 -10 -122 -10 -200 -1 -139 17
-181 29 -172 50 4 9 38 107 75 217 117 344 202 590 208 599 6 11 1 24 109
-269z"/>
</g>
</svg>
